<svg xmlns="http://www.w3.org/2000/svg" xmlns:xlink="http://www.w3.org/1999/xlink" width="291" height="72" viewBox="0 0 291 72">
    <defs>
        <path id="sihire8s0a" d="M0.009 0.006L23.172 0.006 23.172 35.999 0.009 35.999z"/>
    </defs>
    <g fill="none" fill-rule="evenodd">
        <g>
            <g>
                <g transform="translate(-216 -2818) translate(0 2340) translate(216 478.247)">
                    <text fill="#32416A" font-family="NanumSquareRoundOTFEB, NanumSquareRoundOTF" font-size="30" font-weight="600">
                        <tspan x="80" y="43.753">Google Play</tspan>
                    </text>
                    <g>
                        <g transform="translate(33 16.553) translate(0 1.2)">
                            <mask id="0u3q522nib" fill="#fff">
                                <use xlink:href="#sihire8s0a"/>
                            </mask>
                            <path fill="#0FF" d="M17.428 17.543L.086.006C.063.034.042.062.022.091l-.013.02v35.047l17.419-17.615z" mask="url(#0u3q522nib)"/>
                            <path fill="red" d="M17.428 17.543L.009 35.158v.145c.027.042.055.082.086.121.031.04.064.078.099.114.035.037.072.071.11.104.039.033.079.063.12.092.041.029.084.055.128.08.044.024.09.046.136.066.046.02.093.037.141.052.048.015.097.028.146.038.049.01.098.017.148.022.05.005.1.008.15.008.036 0 .072-.001.107-.004.05-.003.1-.01.15-.018l.028-.007 11.667-6.812.095-.055 9.445-5.515.407-.237-5.744-5.809z" mask="url(#0u3q522nib)"/>
                        </g>
                        <path fill="#FF0" d="M23.472 13.2L18 19.079l5.7 6.123 2.243-1.392.235-.146.674-.418.22-.137.214-.133 4.403-2.73.05-.07c.028-.045.054-.09.078-.137.024-.047.046-.095.065-.145.02-.049.037-.1.051-.15.015-.051.027-.103.037-.156.01-.052.018-.105.023-.158.005-.054.007-.107.007-.16 0-.038-.001-.076-.004-.114-.003-.053-.01-.106-.018-.159-.008-.053-.02-.105-.032-.157-.014-.051-.03-.102-.047-.152-.019-.05-.039-.098-.061-.146-.023-.048-.048-.094-.075-.14-.02-.034-.043-.067-.066-.1l-.526-.326-2.988-1.852-.323-.201-2.532-1.57-1.856-1.151z" transform="translate(33 16.553)"/>
                        <path fill="#0F0" d="M1.185.2c-.035 0-.071.002-.107.005-.05.003-.1.01-.15.019C.878.233.83.244.78.259.732.273.684.289.637.309.59.33.544.35.499.374.454.4.409.425.367.454.325.482.284.514.244.547.204.58.167.615.13.652.094.689.06.728.027.768L0 .806l17.45 18.395L23 13.35l-.586-.357-7.893-4.803-.088-.054-4.61-2.805-.308-.188-4.498-2.737-.23-.14L1.428.223c-.03-.006-.06-.01-.091-.014C1.287.203 1.236.2 1.185.2z" transform="translate(33 16.553)"/>
                    </g>
                    <rect width="290" height="69" x=".5" y="1.253" stroke="#32416A" rx="34.5"/>
                </g>
            </g>
        </g>
    </g>
</svg>
