<svg xmlns="http://www.w3.org/2000/svg" xmlns:xlink="http://www.w3.org/1999/xlink" width="103" height="30" viewBox="0 0 103 30">
    <defs>
        <path id="5lv2i6sgta" d="M0.005 0.438L16.106 0.438 16.106 17.549 0.005 17.549z"/>
    </defs>
    <g fill="none" fill-rule="evenodd">
        <g>
            <g>
                <path fill="#FFF" d="M20.59 7.114c-.346-.361-.829-.545-1.437-.545-.61 0-1.706.239-2.189 1.824l-2.277 7.122-1.875-7.33c-.137-.465-.384-.848-.733-1.142-.375-.314-.838-.474-1.376-.474-.558 0-1.03.16-1.404.474-.35.294-.598.678-.733 1.141l-2.16 7.304L4.13 8.384c-.195-.585-.455-1.014-.798-1.316-.377-.33-.844-.499-1.388-.499C.727 6.57 0 7.296 0 8.513c0 .357.05.698.151 1.028l4.16 12.48c.147.413.417.759.8 1.028.764.54 1.774.539 2.537 0 .383-.269.652-.614.8-1.027L10.6 14.44l2.034 7.533c.123.433.388.796.787 1.076.382.27.819.407 1.296.407.464 0 .89-.14 1.266-.415.368-.268.628-.611.78-1.035l4.143-12.432c.127-.33.191-.697.191-1.089 0-.556-.17-1.017-.507-1.37M26.329 12.998c.244-.667.617-1.216 1.127-1.664.714-.627 1.637-.933 2.822-.933 1.037 0 1.845.297 2.47.906.463.452.793 1.01.997 1.691h-7.416zm11.104 3.211c.393-.377.6-.873.6-1.435 0-1.59-.31-3.025-.92-4.268-.625-1.269-1.534-2.273-2.705-2.984-1.165-.707-2.555-1.065-4.13-1.065-1.589 0-3.035.37-4.299 1.1-1.27.732-2.274 1.767-2.985 3.076-.704 1.296-1.061 2.774-1.061 4.394 0 1.627.38 3.107 1.127 4.398.751 1.296 1.81 2.324 3.145 3.053 1.324.723 2.836 1.09 4.494 1.09.94 0 1.934-.174 2.953-.518 1.025-.344 1.901-.802 2.587-1.348.494-.37.755-.873.755-1.453 0-.408-.135-1.005-.756-1.522-.351-.318-.808-.479-1.356-.479-.53 0-1 .159-1.39.465-.325.247-.757.464-1.284.642-.525.178-1.033.269-1.51.269-1.251 0-2.273-.339-3.122-1.035-.607-.496-1.033-1.095-1.29-1.815h9.69c.57 0 1.073-.195 1.457-.565zM50.262 18.944c-.644.382-1.356.567-2.179.567-.822 0-1.535-.185-2.178-.567-.643-.38-1.134-.895-1.5-1.573-.368-.678-.554-1.466-.554-2.345 0-.879.187-1.674.556-2.362.367-.685.857-1.203 1.498-1.583.643-.382 1.356-.568 2.178-.568.823 0 1.535.186 2.18.568.638.378 1.123.894 1.48 1.577.362.691.544 1.487.544 2.368 0 .88-.182 1.671-.542 2.352-.358.674-.842 1.187-1.483 1.566m5.212-8.336c-.73-1.295-1.753-2.323-3.04-3.055-1.282-.727-2.746-1.096-4.35-1.096-1.623 0-3.1.368-4.39 1.095-1.3.732-2.324 1.762-3.045 3.06-.716 1.289-1.079 2.773-1.079 4.414 0 1.614.336 3.083.997 4.366.671 1.3 1.627 2.333 2.839 3.068 1.21.735 2.595 1.108 4.116 1.108 1.335 0 2.555-.33 3.625-.982.391-.237.755-.51 1.091-.815-.081.682-.26 1.29-.536 1.812-.385.73-.878 1.264-1.507 1.634-.636.374-1.327.555-2.112.555-.859 0-1.631-.152-2.296-.452-.657-.297-1.186-.712-1.615-1.268-.444-.583-1.053-.891-1.76-.891-.41 0-.813.126-1.23.395-.752.537-.91 1.185-.91 1.633 0 .437.159.86.474 1.262.859 1.082 1.935 1.926 3.2 2.507 1.256.578 2.629.87 4.081.87 1.629 0 3.115-.39 4.418-1.159 1.304-.77 2.33-1.837 3.05-3.174.712-1.323 1.074-2.805 1.074-4.404v-6.065c0-1.641-.369-3.127-1.095-4.418M69.976 18.944c-.643.382-1.356.567-2.179.567-.822 0-1.535-.185-2.178-.567-.643-.38-1.133-.895-1.5-1.573-.368-.678-.553-1.466-.553-2.345 0-.879.186-1.674.555-2.362.367-.685.856-1.203 1.498-1.583.643-.382 1.356-.568 2.178-.568.823 0 1.536.186 2.18.568.638.378 1.122.894 1.48 1.577.362.691.545 1.487.545 2.368 0 .88-.183 1.671-.543 2.352-.358.674-.843 1.187-1.483 1.566m5.211-8.336c-.73-1.295-1.752-2.323-3.04-3.055-1.281-.727-2.745-1.096-4.35-1.096-1.622 0-3.1.368-4.39 1.095-1.299.732-2.323 1.762-3.044 3.06-.716 1.289-1.079 2.773-1.079 4.414 0 1.614.336 3.083.998 4.366.67 1.3 1.626 2.333 2.837 3.068 1.211.735 2.597 1.108 4.117 1.108 1.335 0 2.555-.33 3.626-.982.39-.237.754-.51 1.09-.815-.08.682-.26 1.29-.536 1.812-.385.73-.878 1.264-1.507 1.634-.636.374-1.327.555-2.112.555-.859 0-1.631-.152-2.295-.452-.657-.297-1.187-.712-1.616-1.268-.444-.583-1.052-.891-1.76-.891-.41 0-.813.126-1.23.395-.752.537-.91 1.185-.91 1.633 0 .437.159.86.474 1.262.859 1.082 1.936 1.926 3.2 2.507 1.256.578 2.629.87 4.082.87 1.628 0 3.114-.39 4.417-1.159 1.304-.77 2.33-1.837 3.05-3.174.713-1.323 1.074-2.805 1.074-4.404v-6.065c0-1.641-.368-3.127-1.096-4.418" transform="translate(-216 -35) translate(216 35)"/>
                <g transform="translate(-216 -35) translate(216 35) translate(86.19 6.019)">
                    <mask id="f5biirijbb" fill="#fff">
                        <use xlink:href="#5lv2i6sgta"/>
                    </mask>
                    <path fill="#FFF" d="M4.402 6.98c.243-.667.616-1.216 1.127-1.665.714-.627 1.636-.932 2.821-.932 1.037 0 1.845.296 2.47.905.464.453.794 1.01.997 1.691H4.402zm11.104 3.21c.392-.376.6-.873.6-1.435 0-1.59-.31-3.025-.921-4.268-.624-1.269-1.534-2.273-2.704-2.983C11.315.796 9.926.438 8.35.438c-1.589 0-3.036.37-4.3 1.1-1.27.732-2.274 1.767-2.984 3.076C.363 5.91.005 7.388.005 9.008c0 1.627.38 3.107 1.128 4.398.751 1.297 1.81 2.324 3.145 3.053 1.324.723 2.836 1.09 4.493 1.09.941 0 1.935-.174 2.954-.517 1.024-.345 1.901-.803 2.587-1.348.494-.371.755-.874.755-1.454 0-.407-.136-1.005-.757-1.522-.35-.318-.807-.479-1.355-.479-.53 0-1 .159-1.39.465-.325.248-.757.464-1.284.642-.526.178-1.034.269-1.51.269-1.252 0-2.273-.339-3.122-1.034-.607-.497-1.034-1.096-1.29-1.816h9.69c.57 0 1.073-.195 1.457-.564z" mask="url(#f5biirijbb)"/>
                </g>
                <path fill="#FFF" d="M82.943.617C82.539.213 82.003 0 81.392 0s-1.148.214-1.551.617c-.404.404-.618.94-.618 1.552v19.23c0 .611.214 1.148.618 1.552.404.403.94.617 1.551.617s1.148-.214 1.551-.617c.405-.404.618-.94.618-1.552V2.17c0-.611-.214-1.148-.618-1.552" transform="translate(-216 -35) translate(216 35)"/>
            </g>
        </g>
    </g>
</svg>
