<svg xmlns="http://www.w3.org/2000/svg" width="92" height="62" viewBox="0 0 92 62">
    <g fill="none" fill-rule="evenodd">
        <g>
            <g>
                <g>
                    <path fill="#32416A" d="M65 35.66c.194-.21.372-.427.537-.652l.086-.103-.007-.006c2.083-2.942 1.816-7.052-.81-9.681-2.919-2.922-7.632-2.904-10.529.038-.28.285-.523.59-.748.904l-5.112 6.17V8.021h-.004c-.023-2.442-1.222-4.826-3.41-6.247C41.547-.471 36.94.534 34.714 4.02l-11.49 16.554-9.52-16.554C11.476.534 6.87-.47 3.413 1.774-.043 4.019-1.039 8.665 1.187 12.152l14.577 25.343c.063.122.134.24.205.357l.108.189.004-.003c.558.874 1.3 1.649 2.223 2.249 3.456 2.245 8.063 1.24 10.29-2.246l4.934-6.867V53.07c0 4.147 3.332 7.508 7.443 7.508 2.218 0 4.204-.984 5.568-2.536l.004.005.092-.11c.048-.059.096-.116.142-.174L65 35.66z" transform="translate(-216 -2560) translate(0 2340) translate(216 220.423)"/>
                    <path fill="#FB896B" d="M92 13.368l-.002-.064C91.963 7.134 86.844 2.192 80.69 2.6c-.639.042-1.263.144-1.868.299C74.32 4.106 71 8.276 71 13.236c0 5.407 3.812 9.873 8.93 10.587V30.071c0 .352.477.598.8.473C83.242 29.568 92 25.316 92 13.429h-.002l.002-.061" transform="translate(-216 -2560) translate(0 2340) translate(216 220.423)"/>
                    <path fill="#32416A" d="M78.39.577c-.257 0-.516.008-.777.025-.7.046-1.384.154-2.047.32C70.636 2.215 67 6.683 67 11.999c0 5.793 4.175 10.578 9.781 11.343v6.694c0 .31.35.542.672.542.07 0 .14-.011.203-.035C80.41 29.496 90 24.94 90 12.204h-.002l.002-.066-.002-.068C89.961 5.716 84.778.577 78.39.577m0 1.948c5.291 0 9.621 4.287 9.652 9.556v.113l-.002.402c-.158 9.199-5.876 13.544-9.303 15.324V21.64l-1.69-.23c-4.688-.64-8.09-4.599-8.09-9.413 0-4.312 2.918-8.089 7.097-9.188.552-.139 1.12-.227 1.686-.264.216-.013.436-.021.65-.021" transform="translate(-216 -2560) translate(0 2340) translate(216 220.423)"/>
                </g>
            </g>
        </g>
    </g>
</svg>
