<svg xmlns="http://www.w3.org/2000/svg" xmlns:xlink="http://www.w3.org/1999/xlink" width="89" height="151" viewBox="0 0 89 151">
    <defs>
        <path id="1rbixm0mva" d="M5.059 0L38.422 0 38.422 58.649 5.059 58.649z"/>
        <path id="262xlh9ilc" d="M0.056 0.24L49.806 0.24 49.806 55 0.056 55z"/>
        <path id="au44h2szte" d="M1.686 0.477L41.955 0.477 41.955 43.817 1.686 43.817z"/>
        <path id="4w65ft11tg" d="M0.042 1.813L83.331 1.813 83.331 40.624 0.042 40.624z"/>
    </defs>
    <g fill="none" fill-rule="evenodd">
        <g>
            <g>
                <g>
                    <path fill="#555146" d="M46.388 75.26c3.864 1.638 5.838 4.242 7.392 8.064 1.554 3.738 2.688 7.56 2.94 11.592.042.63.042 1.302-.126 1.89-.168.546-.714 1.092-1.302.882-.378-.126-.546-.336-.756-.714-.168-.21-.21-1.05-.252-1.386-.252-4.662-1.596-9.114-3.78-13.272-1.386-2.604-3.57-4.242-6.342-5.124-3.066-.966-5.88-.336-8.316 1.89-2.604 2.436-4.494 5.376-5.712 8.736-.966 2.73-1.764 5.502-2.562 8.274-.462 1.512-1.512 1.89-2.184.756-.714-1.176 1.722-7.896 2.016-8.694 1.302-3.864 3.192-7.392 6.132-10.29 2.352-2.31 4.998-3.822 8.4-3.57 1.848.126 4.452.966 4.452.966" transform="translate(-793 -2023) translate(0 1560) translate(793 463)"/>
                    <path fill="#D1D7DB" d="M26.43 97.908c-1.794-.714-3.713-1.344-5.507-2.184-.709-.336-1.251-1.176-1.877-1.764-.209-.21-.417-.42-.542-.672-.167-.252-.543-.588-.5-.798.124-.294.5-.63.75-.714 1.585-.336 3.212-.588 4.797-.882 6.841-1.218 13.807-1.428 20.732-1.386 5.464 0 10.929.126 16.393.252 1.21 0 2.336.252 3.254 1.092 1.794 1.596 3.546 3.192 5.297 4.788.25.21.46.504.584.756.418.756.126 1.512-.709 1.596-1.126.21-2.336.336-3.545.336-10.262.084-20.523.168-30.785.168-2.711 0-5.464-.378-8.343-.588" transform="translate(-793 -2023) translate(0 1560) translate(793 463)"/>
                    <g transform="translate(-793 -2023) translate(0 1560) translate(793 463) translate(0 92)">
                        <mask id="breyowxlob" fill="#fff">
                            <use xlink:href="#1rbixm0mva"/>
                        </mask>
                        <path fill="#3E9BCC" d="M18.073 0c.295.042 1.138.464 1.307.548 1.475.716 2.993 1.39 4.426 2.107 2.909 1.517 2.867 1.054 2.74 4.467v.084c-.042 11.168-.421 22.252-1.897 33.293-.717 5.352-1.518 10.662-3.077 15.846-.085.169-.042.464.042.548.506.38.548.8.21 1.222-.421.548-.969.674-1.517.38-3.752-1.813-7.546-3.625-11.298-5.48-.675-.336-1.012-.969-.885-1.77.168-1.727.337-3.455.548-5.183.548-4.256 1.054-8.47 1.644-12.685.759-5.057 1.475-10.114 2.487-15.087 1.054-5.436 2.53-10.83 3.794-16.267.21-.927.38-1.77 1.476-2.023" mask="url(#breyowxlob)"/>
                    </g>
                    <g transform="translate(-793 -2023) translate(0 1560) translate(793 463) translate(21 96)">
                        <mask id="eopoocwsyd" fill="#fff">
                            <use xlink:href="#262xlh9ilc"/>
                        </mask>
                        <path fill="#F07E73" d="M48.576.633c1.314.667 1.23 3.042 1.23 3.084-.128 4.541.041 9-.128 13.5-.212 5.708-.381 11.333-.72 17-.17 3.041-.551 6.083-.848 9.083-.212 2.042-.339 4.083-.55 6.125-.085 1.125-.382 1.458-1.568 1.708-.763.167-1.526.334-2.289.417-9.406 1-18.813 2.042-28.178 2.917-4.703.375-9.406.375-14.067.541C.44 55.05.017 54.55.059 53.675c.466-6.625.89-13.208 1.356-19.833.34-4.25.593-8.5.975-12.75.296-3.584.678-7.125 1.102-10.709.296-2.791.677-5.666 1.101-8.5C4.763.717 5.271.258 6.288.258c6.398 0 12.84-.041 19.237 0C30.017.3 34.508.425 39 .467l8.771.125c.17 0 .466 0 .805.041" mask="url(#eopoocwsyd)"/>
                    </g>
                    <path fill="#555146" d="M49.027 75.857c.168.084.294.21.462.294 3.612 1.428 6.216 3.906 7.854 7.476 1.848 4.074 3.108 8.316 3.402 12.852 0 .42 0 .924-.126 1.302-.168.672-.63 1.008-1.302.882-.672-.084-1.008-.546-1.008-1.218-.042-3.108-.63-6.132-1.68-9.03-.63-1.722-1.344-3.444-2.226-5.04-2.1-3.654-5.334-5.502-9.618-5.418-2.1.042-3.78 1.134-5.292 2.562-2.562 2.436-4.242 5.46-5.544 8.778-1.05 2.604-1.932 5.25-2.436 8.022-.084.378-.294.798-.546 1.05-.546.546-1.512.21-1.68-.588-.042-.21-.042-.42 0-.63 1.05-5.418 2.604-10.626 5.754-15.162 1.47-2.1 3.192-3.948 5.46-5.25 1.554-.924 3.276-1.344 5.124-1.26.252 0 .504-.084.756-.168.882.21 1.764.378 2.646.546" transform="translate(-793 -2023) translate(0 1560) translate(793 463)"/>
                    <g transform="translate(-793 -2023) translate(0 1560) translate(793 463) translate(3 32)">
                        <mask id="t8ifo4d8rf" fill="#fff">
                            <use xlink:href="#au44h2szte"/>
                        </mask>
                        <path fill="#545147" d="M38.949 43.776c-.127-.043-.253-.127-.38-.254L1.893 1.933c-.295-.38-.295-.93.084-1.226C2.357.368 2.905.41 3.2.79L39.834 42.38c.337.38.295.888 0 1.227-.253.211-.59.253-.885.169" mask="url(#t8ifo4d8rf)"/>
                    </g>
                    <path fill="#545147" d="M43.237 74.968c-.252-.084-.462-.295-.546-.549l-13.02-41.268c-.168-.465.084-.972.504-1.098.462-.17.966.084 1.134.549l13.02 41.31c.168.423-.084.93-.504 1.056-.21.043-.378.043-.588 0" transform="translate(-793 -2023) translate(0 1560) translate(793 463)"/>
                    <path fill="#545147" d="M44.6 75.832h-.042c-.462-.168-.672-.714-.462-1.134L60.35 34.672c.168-.462.672-.672 1.092-.462.462.168.672.672.462 1.134L45.65 75.328c-.168.462-.588.63-1.05.504" transform="translate(-793 -2023) translate(0 1560) translate(793 463)"/>
                    <path fill="#545147" d="M44.587 75.205c-.127-.042-.254-.126-.338-.21-.339-.378-.339-.924.042-1.26L86.563 34.97c.338-.294.93-.294 1.183.042.339.378.339.924 0 1.26L45.474 75.037c-.253.21-.591.252-.887.168" transform="translate(-793 -2023) translate(0 1560) translate(793 463)"/>
                    <path fill="#3E9BCC" d="M42.528 78.409c-.084-.168-.168-.336-.252-.462-.798-1.134-.924-2.52.21-3.738 1.596-1.764 3.528-1.47 4.956-.21 1.428 1.176 1.008 3.15-.21 4.116-1.008.84-2.184 1.092-3.528.798-.168 0-.294 0-.42-.042-.252-.126-.504-.294-.756-.462" transform="translate(-793 -2023) translate(0 1560) translate(793 463)"/>
                    <g transform="translate(-793 -2023) translate(0 1560) translate(793 463) translate(5)">
                        <mask id="zrk7oht6th" fill="#fff">
                            <use xlink:href="#4w65ft11tg"/>
                        </mask>
                        <path fill="#246990" d="M71.862 30.024c4.242.675 8.4 3.5 11.34 6.534 1.008-.927-4.158-12.604-5.67-15.303-1.176-1.98-2.436-3.92-3.906-5.69-2.016-2.488-4.368-4.596-6.972-6.493l-4.116-2.571c-1.092-.59-2.226-1.18-3.402-1.729-3.318-1.517-6.846-2.403-10.458-2.74-2.436-.21-4.914-.21-7.35-.21-2.31-.043-4.704.168-6.972.8-1.596.38-3.192.885-4.746 1.307-4.116 1.223-8.064 2.909-11.676 5.27-4.368 2.908-8.316 6.197-11.508 10.37-1.428 1.855-2.856 3.752-3.948 5.818C1.47 27.327.672 29.265.294 31.373c-.168.843-.21 1.644-.252 2.487 0 .043 8.316-5.143 13.146-5.396 5.208-.253 10.038 4.342 13.272 7.546 3.108-3.836 7.686-8.347 12.6-8.557 6.09-.211 11.718 5.185 15.792 9.822 3.948-4.131 11.34-8.136 17.01-7.25" mask="url(#zrk7oht6th)"/>
                    </g>
                </g>
            </g>
        </g>
    </g>
</svg>
